<?xml version="1.0" encoding="UTF-8" standalone="no"?>
<svg
   xmlns:dc="http://purl.org/dc/elements/1.1/"
   xmlns:cc="http://creativecommons.org/ns#"
   xmlns:rdf="http://www.w3.org/1999/02/22-rdf-syntax-ns#"
   xmlns:svg="http://www.w3.org/2000/svg"
   xmlns="http://www.w3.org/2000/svg"
   xmlns:sodipodi="http://sodipodi.sourceforge.net/DTD/sodipodi-0.dtd"
   xmlns:inkscape="http://www.inkscape.org/namespaces/inkscape"
   version="1.1"
   id="svg833"
   xml:space="preserve"
   width="1740"
   height="402.66666"
   viewBox="0 0 1740 402.66666"
   sodipodi:docname="ControlFOC_sanssat.svg"
   inkscape:version="1.0.2-2 (e86c870879, 2021-01-15)"><metadata
     id="metadata839"><rdf:RDF><cc:Work
         rdf:about=""><dc:format>image/svg+xml</dc:format><dc:type
           rdf:resource="http://purl.org/dc/dcmitype/StillImage" /><dc:title></dc:title></cc:Work></rdf:RDF></metadata><defs
     id="defs837"><clipPath
       clipPathUnits="userSpaceOnUse"
       id="clipPath853"><path
         d="M 0,0 H 13050 V 3020 H 0 Z m 12790.6,2170 v -12.6 l -103.2,-29.4 v 72 z"
         clip-rule="evenodd"
         id="path851" /></clipPath><clipPath
       clipPathUnits="userSpaceOnUse"
       id="clipPath867"><path
         d="M 0,0 H 13050 V 3020 H 0 Z m 12790.6,1810 v -12.6 l -103.2,-29.4 v 72 z"
         clip-rule="evenodd"
         id="path865" /></clipPath><clipPath
       clipPathUnits="userSpaceOnUse"
       id="clipPath903"><path
         d="M 0,0 H 13050 V 3020 H 0 Z m 10369.6,1990 v -12.6 l -103.2,-29.4 v 72 z"
         clip-rule="evenodd"
         id="path901" /></clipPath><clipPath
       clipPathUnits="userSpaceOnUse"
       id="clipPath927"><path
         d="M 0,0 H 13050 V 3020 H 0 Z m 8299.6,1990 v -12.6 L 8196.4,1948 v 72 z"
         clip-rule="evenodd"
         id="path925" /></clipPath><clipPath
       clipPathUnits="userSpaceOnUse"
       id="clipPath945"><path
         d="M 0,0 H 13050 V 3020 H 0 Z m 9199.6,1990 v -12.6 L 9096.4,1948 v 72 z"
         clip-rule="evenodd"
         id="path943" /></clipPath><clipPath
       clipPathUnits="userSpaceOnUse"
       id="clipPath979"><path
         d="M 0,0 H 13050 V 3020 H 0 Z M 8737,897.398 V 910 l 83.4,30 V 868 Z M 11257,2033.2 h 12.6 l 29.4,-42.6 -0.6,-5.4 -1.2,-6 -2.4,-5.4 -3,-4.8 -3.6,-4.2 -4.8,-3.6 -4.8,-3 -5.4,-1.8 -6,-1.2 -5.4,-0.6 -6,0.6 -5.4,1.8 -5.4,2.4 -4.8,3.6 -4.2,3.6 -3.6,4.8 -2.4,5.4 -1.8,5.4 -1.2,5.4 z"
         clip-rule="evenodd"
         id="path977" /></clipPath><clipPath
       clipPathUnits="userSpaceOnUse"
       id="clipPath997"><path
         d="M 0,0 H 13050 V 3020 H 0 Z m 11539.6,1990 v -12.6 l -121.8,-29.4 v 72 z"
         clip-rule="evenodd"
         id="path995" /></clipPath><clipPath
       clipPathUnits="userSpaceOnUse"
       id="clipPath1013"><path
         d="M 0,0 H 13050 V 3020 H 0 Z m 649.602,1990 v -12.6 L 527.801,1948 v 72 z"
         clip-rule="evenodd"
         id="path1011" /></clipPath><clipPath
       clipPathUnits="userSpaceOnUse"
       id="clipPath1035"><path
         d="M 0,0 H 13050 V 3020 H 0 Z m 7624.6,1990 v -12.6 l -52.8,-11.4 v 36 z"
         clip-rule="evenodd"
         id="path1033" /></clipPath><clipPath
       clipPathUnits="userSpaceOnUse"
       id="clipPath1049"><path
         d="M 0,0 H 13050 V 3020 H 0 Z m 7387,2215 h 12.6 l 11.4,-52.2 h -36 z"
         clip-rule="evenodd"
         id="path1047" /></clipPath><clipPath
       clipPathUnits="userSpaceOnUse"
       id="clipPath1083"><path
         d="M 0,0 H 13050 V 3020 H 0 Z m 1189.6,1990 v -12.6 L 1080.4,1948 v 72 z"
         clip-rule="evenodd"
         id="path1081" /></clipPath><clipPath
       clipPathUnits="userSpaceOnUse"
       id="clipPath1099"><path
         d="M 0,0 H 13050 V 3020 H 0 Z m 2989.6,1990 v -12.6 L 2880.4,1948 v 72 z"
         clip-rule="evenodd"
         id="path1097" /></clipPath><clipPath
       clipPathUnits="userSpaceOnUse"
       id="clipPath1125"><path
         d="M 0,0 H 13050 V 3020 H 0 Z m 3664.6,1981 v -12.6 l -52.8,-11.4 v 36 z"
         clip-rule="evenodd"
         id="path1123" /></clipPath><clipPath
       clipPathUnits="userSpaceOnUse"
       id="clipPath1139"><path
         d="M 0,0 H 13050 V 3020 H 0 Z m 3427,2206 h 12.6 l 11.4,-52.2 h -36 z"
         clip-rule="evenodd"
         id="path1137" /></clipPath><clipPath
       clipPathUnits="userSpaceOnUse"
       id="clipPath1163"><path
         d="M 0,0 H 13050 V 3020 H 0 Z M 1819.6,2337.4 H 1807 l -30,109.2 h 72 z"
         clip-rule="evenodd"
         id="path1161" /></clipPath><clipPath
       clipPathUnits="userSpaceOnUse"
       id="clipPath1185"><path
         d="M 0,0 H 13050 V 3020 H 0 Z m 5149.6,1990 v -12.6 L 5040.4,1948 v 72 z"
         clip-rule="evenodd"
         id="path1183" /></clipPath><clipPath
       clipPathUnits="userSpaceOnUse"
       id="clipPath1199"><path
         d="M 0,0 H 13050 V 3020 H 0 Z m 4609.6,1990 v -12.6 L 4500.4,1948 v 72 z"
         clip-rule="evenodd"
         id="path1197" /></clipPath><clipPath
       clipPathUnits="userSpaceOnUse"
       id="clipPath1223"><path
         d="M 0,0 H 13050 V 3020 H 0 Z m 6949.6,1990 v -12.6 L 6840.4,1948 v 72 z"
         clip-rule="evenodd"
         id="path1221" /></clipPath><clipPath
       clipPathUnits="userSpaceOnUse"
       id="clipPath1237"><path
         d="M 0,0 H 13050 V 3020 H 0 Z M 5779.6,2337.4 H 5767 l -30,109.2 h 72 z"
         clip-rule="evenodd"
         id="path1235" /></clipPath><clipPath
       clipPathUnits="userSpaceOnUse"
       id="clipPath1257"><path
         d="M 0,0 H 13050 V 3020 H 0 Z M 7444.6,55 V 42.3984 L 7360.6,13 v 72 z"
         clip-rule="evenodd"
         id="path1255" /></clipPath><clipPath
       clipPathUnits="userSpaceOnUse"
       id="clipPath1283"><path
         d="M 0,0 H 13050 V 3020 H 0 Z m 727,1900 h 12.602 L 769,1778.8 h -72 z"
         clip-rule="evenodd"
         id="path1281" /></clipPath><clipPath
       clipPathUnits="userSpaceOnUse"
       id="clipPath1297"><path
         d="M 0,0 H 13050 V 3020 H 0 Z M 2359.6,55 V 42.3984 L 2275.6,13 v 72 z"
         clip-rule="evenodd"
         id="path1295" /></clipPath><clipPath
       clipPathUnits="userSpaceOnUse"
       id="clipPath1347"><path
         d="M 0,0 H 13050 V 3020 H 0 Z m 8512,1675 h 12.6 l 29.4,-102.6 h -72 z"
         clip-rule="evenodd"
         id="path1345" /></clipPath><clipPath
       clipPathUnits="userSpaceOnUse"
       id="clipPath1361"><path
         d="M 0,0 H 13050 V 3020 H 0 Z M 8524.6,1212.4 H 8512 l -30,103.2 h 72 z"
         clip-rule="evenodd"
         id="path1359" /></clipPath><clipPath
       clipPathUnits="userSpaceOnUse"
       id="clipPath1375"><path
         d="M 0,0 H 13050 V 3020 H 0 Z m 4687,1900 h 12.6 l 29.4,-102.6 h -72 z"
         clip-rule="evenodd"
         id="path1373" /></clipPath></defs><sodipodi:namedview
     pagecolor="#ffffff"
     bordercolor="#666666"
     borderopacity="1"
     objecttolerance="10"
     gridtolerance="10"
     guidetolerance="10"
     inkscape:pageopacity="0"
     inkscape:pageshadow="2"
     inkscape:window-width="1920"
     inkscape:window-height="1001"
     id="namedview835"
     showgrid="false"
     inkscape:zoom="0.89810689"
     inkscape:cx="772.4217"
     inkscape:cy="224.82006"
     inkscape:window-x="-9"
     inkscape:window-y="-9"
     inkscape:window-maximized="1"
     inkscape:current-layer="g843" /><g
     id="g841"
     inkscape:groupmode="layer"
     inkscape:label="ink_ext_XXXXXX"
     transform="matrix(1.3333333,0,0,-1.3333333,0,402.66667)"><g
       id="g843"
       transform="scale(0.1)"><path
         d="m 12331.6,1984 c 0,-222.35 -180.3,-402.6 -402.6,-402.6 -222.3,0 -402.6,180.25 -402.6,402.6 0,222.35 180.3,402.6 402.6,402.6 222.3,0 402.6,-180.25 402.6,-402.6 z"
         style="fill:none;stroke:#8f0000;stroke-width:18;stroke-linecap:butt;stroke-linejoin:miter;stroke-miterlimit:10;stroke-dasharray:none;stroke-opacity:1"
         id="path845" /><g
         id="g847"><g
           id="g849"
           clip-path="url(#clipPath853)"><path
             d="M 12292.6,2164 H 12784"
             style="fill:none;stroke:#8f0000;stroke-width:9;stroke-linecap:butt;stroke-linejoin:miter;stroke-miterlimit:10;stroke-dasharray:none;stroke-opacity:1"
             id="path855" /></g></g><path
         d="m 12687.4,2128 90,36 -90,36 z"
         style="fill:#8f0000;fill-opacity:1;fill-rule:evenodd;stroke:none"
         id="path857" /><path
         d="m 12687.4,2128 90,36 -90,36 z"
         style="fill:none;stroke:#8f0000;stroke-width:4.5;stroke-linecap:butt;stroke-linejoin:miter;stroke-miterlimit:10;stroke-dasharray:none;stroke-opacity:1"
         id="path859" /><g
         id="g861"><g
           id="g863"
           clip-path="url(#clipPath867)"><path
             d="M 12291.4,1804 H 12784"
             style="fill:none;stroke:#8f0000;stroke-width:9;stroke-linecap:butt;stroke-linejoin:miter;stroke-miterlimit:10;stroke-dasharray:none;stroke-opacity:1"
             id="path869" /></g></g><path
         d="m 12687.4,1768 90,36 -90,36 z"
         style="fill:#8f0000;fill-opacity:1;fill-rule:evenodd;stroke:none"
         id="path871" /><path
         d="m 12687.4,1768 90,36 -90,36 z"
         style="fill:none;stroke:#8f0000;stroke-width:4.5;stroke-linecap:butt;stroke-linejoin:miter;stroke-miterlimit:10;stroke-dasharray:none;stroke-opacity:1"
         id="path873" /><g
         id="g875"
         transform="scale(10)"><text
           transform="matrix(1,0,0,-1,1175.98,193.9)"
           style="font-variant:normal;font-weight:normal;font-size:12px;font-family:'Times New Roman';-inkscape-font-specification:Times-Roman;writing-mode:lr-tb;fill:#8f0000;fill-opacity:1;fill-rule:nonzero;stroke:none"
           id="text885"><tspan
             x="0 6.6719999 17.34 24.011999"
             y="0"
             sodipodi:role="line"
             id="tspan877">PMSM</tspan><tspan
             x="116.82 120.156"
             y="9"
             sodipodi:role="line"
             id="tspan879">th</tspan><tspan
             x="116.82"
             y="-27"
             id="tspan881">w</tspan><tspan
             x="-46.080002"
             y="-22.5"
             id="tspan883">V</tspan></text></g><path
         d="m 10363,1669 h 720 v 630 h -720 z"
         style="fill:none;stroke:#8f0000;stroke-width:18;stroke-linecap:butt;stroke-linejoin:miter;stroke-miterlimit:10;stroke-dasharray:none;stroke-opacity:1"
         id="path887" /><g
         id="g889"
         transform="scale(10)"><text
           transform="matrix(1,0,0,-1,1049.8,193.9)"
           style="font-variant:normal;font-weight:normal;font-size:12px;font-family:'Times New Roman';-inkscape-font-specification:Times-Roman;writing-mode:lr-tb;fill:#000000;fill-opacity:1;fill-rule:nonzero;stroke:none"
           id="text893"><tspan
             x="0 8.6639996 14.664 20.664 26.664 30 35.327999 41.327999"
             y="0"
             sodipodi:role="line"
             id="tspan891">Onduleur</tspan></text></g><path
         d="m 9193,1669 h 720 v 630 h -720 z"
         style="fill:none;stroke:#00008f;stroke-width:18;stroke-linecap:butt;stroke-linejoin:miter;stroke-miterlimit:10;stroke-dasharray:none;stroke-opacity:1"
         id="path895" /><g
         id="g897"><g
           id="g899"
           clip-path="url(#clipPath903)"><path
             d="m 9913,1984 h 450"
             style="fill:none;stroke:#00008f;stroke-width:9;stroke-linecap:butt;stroke-linejoin:miter;stroke-miterlimit:10;stroke-dasharray:none;stroke-opacity:1"
             id="path905" /></g></g><path
         d="m 10266.4,1948 90,36 -90,36 z"
         style="fill:#00008f;fill-opacity:1;fill-rule:evenodd;stroke:none"
         id="path907" /><path
         d="m 10266.4,1948 90,36 -90,36 z"
         style="fill:none;stroke:#00008f;stroke-width:4.5;stroke-linecap:butt;stroke-linejoin:miter;stroke-miterlimit:10;stroke-dasharray:none;stroke-opacity:1"
         id="path909" /><g
         id="g911"
         transform="scale(10)"><text
           transform="matrix(1,0,0,-1,1013.8,216.4)"
           style="font-variant:normal;font-weight:normal;font-size:12px;font-family:'Times New Roman';-inkscape-font-specification:Times-Roman;writing-mode:lr-tb;fill:#000000;fill-opacity:1;fill-rule:nonzero;stroke:none"
           id="text915"><tspan
             x="0"
             y="0"
             id="tspan913">S</tspan></text><text
           transform="matrix(0.707107,0.707107,0.707107,-0.707107,949.48,189.4)"
           style="font-variant:normal;font-weight:normal;font-size:12px;font-family:'Times New Roman';-inkscape-font-specification:Times-Roman;writing-mode:lr-tb;fill:#000000;fill-opacity:1;fill-rule:nonzero;stroke:none"
           id="text919"><tspan
             x="0 10.668003 18.000006"
             y="0"
             sodipodi:role="line"
             id="tspan917">MLI</tspan></text></g><g
         id="g921"><g
           id="g923"
           clip-path="url(#clipPath927)"><path
             d="m 7843,1984 h 450"
             style="fill:none;stroke:#00008f;stroke-width:9;stroke-linecap:butt;stroke-linejoin:miter;stroke-miterlimit:10;stroke-dasharray:none;stroke-opacity:1"
             id="path929" /></g></g><path
         d="m 8196.4,1948 90,36 -90,36 z"
         style="fill:#00008f;fill-opacity:1;fill-rule:evenodd;stroke:none"
         id="path931" /><path
         d="m 8196.4,1948 90,36 -90,36 z"
         style="fill:none;stroke:#00008f;stroke-width:4.5;stroke-linecap:butt;stroke-linejoin:miter;stroke-miterlimit:10;stroke-dasharray:none;stroke-opacity:1"
         id="path933" /><path
         d="M 8743,2299 8293,1669"
         style="fill:none;stroke:#00008f;stroke-width:18;stroke-linecap:butt;stroke-linejoin:miter;stroke-miterlimit:10;stroke-dasharray:none;stroke-opacity:1"
         id="path935" /><path
         d="m 8293,1669 h 450 v 630 h -450 z"
         style="fill:none;stroke:#00008f;stroke-width:18;stroke-linecap:butt;stroke-linejoin:miter;stroke-miterlimit:10;stroke-dasharray:none;stroke-opacity:1"
         id="path937" /><g
         id="g939"><g
           id="g941"
           clip-path="url(#clipPath945)"><path
             d="m 8743,1984 h 450"
             style="fill:none;stroke:#00008f;stroke-width:9;stroke-linecap:butt;stroke-linejoin:miter;stroke-miterlimit:10;stroke-dasharray:none;stroke-opacity:1"
             id="path947" /></g></g><path
         d="m 9096.4,1948 90,36 -90,36 z"
         style="fill:#00008f;fill-opacity:1;fill-rule:evenodd;stroke:none"
         id="path949" /><path
         d="m 9096.4,1948 90,36 -90,36 z"
         style="fill:none;stroke:#00008f;stroke-width:4.5;stroke-linecap:butt;stroke-linejoin:miter;stroke-miterlimit:10;stroke-dasharray:none;stroke-opacity:1"
         id="path951" /><g
         id="g953"
         transform="scale(10)"><text
           transform="matrix(1,0,0,-1,847.3,234.4)"
           style="font-variant:normal;font-weight:normal;font-size:12px;font-family:'Times New Roman';-inkscape-font-specification:Times-Roman;writing-mode:lr-tb;fill:#00008f;fill-opacity:1;fill-rule:nonzero;stroke:none"
           id="text963"><tspan
             x="0 6.6719999 12 15.996 21.996 25.992001 31.992001"
             y="0"
             sodipodi:role="line"
             id="tspan955">ParkInv</tspan><tspan
             x="-9 -3"
             y="22.5"
             sodipodi:role="line"
             id="tspan957">dq</tspan><tspan
             x="9 14.328 20.327999"
             y="58.5"
             sodipodi:role="line"
             id="tspan959">abc</tspan><tspan
             x="-18 -14.664 -8.6639996"
             y="94.5"
             sodipodi:role="line"
             id="tspan961">thm</tspan></text><text
           transform="matrix(0.707107,0.707107,0.707107,-0.707107,892.3,225.4)"
           style="font-variant:normal;font-weight:normal;font-size:12px;font-family:'Times New Roman';-inkscape-font-specification:Times-Roman;writing-mode:lr-tb;fill:#00008f;fill-opacity:1;fill-rule:nonzero;stroke:none"
           id="text969"><tspan
             x="0 6.0000019 11.328004 17.328005 22.656008"
             y="0"
             sodipodi:role="line"
             id="tspan965">vabcr</tspan><tspan
             x="-60.457619 -54.457619 -48.457615 -42.457615"
             y="-60.457619"
             sodipodi:role="line"
             id="tspan967">vdqr</tspan></text></g><path
         d="m 11173,1984 c 0,49.7 40.3,90 90,90 49.7,0 90,-40.3 90,-90"
         style="fill:none;stroke:#8f0000;stroke-width:9;stroke-linecap:butt;stroke-linejoin:miter;stroke-miterlimit:10;stroke-dasharray:none;stroke-opacity:1"
         id="path971" /><g
         id="g973"><g
           id="g975"
           clip-path="url(#clipPath979)"><path
             d="M 11263,2029 V 904 H 8743"
             style="fill:none;stroke:#00008f;stroke-width:9;stroke-linecap:butt;stroke-linejoin:miter;stroke-miterlimit:10;stroke-dasharray:none;stroke-opacity:1"
             id="path981" /></g></g><path
         d="m 11299,1990.6 -0.6,6 -1.2,5.4 -2.4,5.4 -3,4.8 -3.6,4.8 -4.8,3.6 -4.8,2.4 -5.4,2.4 -6,1.2 h -5.4 l -6,-0.6 -5.4,-1.8 -5.4,-2.4 -4.8,-3 -4.2,-4.2 -3.6,-4.8 -2.4,-4.8 -1.8,-5.4 -1.2,-6 v -6 l 1.2,-5.4 1.8,-5.4 2.4,-5.4 3.6,-4.8 4.2,-3.6 4.8,-3.6 5.4,-2.4 5.4,-1.8 6,-0.6 5.4,0.6 6,1.2 5.4,1.8 4.8,3 4.8,3.6 3.6,4.2 3,4.8 2.4,5.4 1.2,6 0.6,5.4"
         style="fill:#00008f;fill-opacity:1;fill-rule:evenodd;stroke:none"
         id="path983" /><path
         d="m 11299,1990.6 -0.6,6 -1.2,5.4 -2.4,5.4 -3,4.8 -3.6,4.8 -4.8,3.6 -4.8,2.4 -5.4,2.4 -6,1.2 h -5.4 l -6,-0.6 -5.4,-1.8 -5.4,-2.4 -4.8,-3 -4.2,-4.2 -3.6,-4.8 -2.4,-4.8 -1.8,-5.4 -1.2,-6 v -6 l 1.2,-5.4 1.8,-5.4 2.4,-5.4 3.6,-4.8 4.2,-3.6 4.8,-3.6 5.4,-2.4 5.4,-1.8 6,-0.6 5.4,0.6 6,1.2 5.4,1.8 4.8,3 4.8,3.6 3.6,4.2 3,4.8 2.4,5.4 1.2,6 z"
         style="fill:none;stroke:#00008f;stroke-width:4.5;stroke-linecap:butt;stroke-linejoin:miter;stroke-miterlimit:10;stroke-dasharray:none;stroke-opacity:1"
         id="path985" /><path
         d="m 8820.4,940 -72,-36 72,-36 z"
         style="fill:#00008f;fill-opacity:1;fill-rule:evenodd;stroke:none"
         id="path987" /><path
         d="m 8820.4,940 -72,-36 72,-36 z"
         style="fill:none;stroke:#00008f;stroke-width:4.5;stroke-linecap:butt;stroke-linejoin:miter;stroke-miterlimit:10;stroke-dasharray:none;stroke-opacity:1"
         id="path989" /><g
         id="g991"><g
           id="g993"
           clip-path="url(#clipPath997)"><path
             d="m 11353,1984 h 180"
             style="fill:none;stroke:#8f0000;stroke-width:9;stroke-linecap:butt;stroke-linejoin:miter;stroke-miterlimit:10;stroke-dasharray:none;stroke-opacity:1"
             id="path999" /></g></g><path
         d="m 11417.8,1948 108,36 -108,36 z"
         style="fill:#8f0000;fill-opacity:1;fill-rule:evenodd;stroke:none"
         id="path1001" /><path
         d="m 11417.8,1948 108,36 -108,36 z"
         style="fill:none;stroke:#8f0000;stroke-width:4.5;stroke-linecap:butt;stroke-linejoin:miter;stroke-miterlimit:10;stroke-dasharray:none;stroke-opacity:1"
         id="path1003" /><path
         d="m 11173,1984 h -90"
         style="fill:none;stroke:#8f0000;stroke-width:9;stroke-linecap:butt;stroke-linejoin:miter;stroke-miterlimit:10;stroke-dasharray:none;stroke-opacity:1"
         id="path1005" /><g
         id="g1007"
         transform="translate(2010)"><g
           id="g1009"
           clip-path="url(#clipPath1013)"><path
             d="M 13,1984 H 643"
             style="fill:none;stroke:#008f8f;stroke-width:9;stroke-linecap:butt;stroke-linejoin:miter;stroke-miterlimit:10;stroke-dasharray:none;stroke-opacity:1"
             id="path1015" /></g></g><path
         d="m 2537.801,1948 108,36 -108,36 z"
         style="fill:#008f8f;fill-opacity:1;fill-rule:evenodd;stroke:none"
         id="path1017" /><path
         d="m 2537.801,1948 108,36 -108,36 z"
         style="fill:none;stroke:#008f8f;stroke-width:4.5;stroke-linecap:butt;stroke-linejoin:miter;stroke-miterlimit:10;stroke-dasharray:none;stroke-opacity:1"
         id="path1019" /><g
         id="g1021"
         transform="matrix(10,0,0,10,2010,-6.2499976e-7)"><text
           transform="matrix(1,0,0,-1,10.3,216.4)"
           style="font-variant:normal;font-weight:normal;font-size:12px;font-family:'Times New Roman';-inkscape-font-specification:Times-Roman;writing-mode:lr-tb;fill:#008f8f;fill-opacity:1;fill-rule:nonzero;stroke:none"
           id="text1025"><tspan
             x="0 3.9960001 9.3240004"
             y="0"
             sodipodi:role="line"
             id="tspan1023">ref</tspan></text></g><path
         d="m 6133,1624 h 1260 v 720 H 6133 Z"
         style="fill:none;stroke:#00008f;stroke-width:9;stroke-linecap:butt;stroke-linejoin:miter;stroke-miterlimit:10;stroke-dasharray:none;stroke-opacity:1"
         id="path1065" /><g
         id="g1067"
         transform="matrix(10,0,0,10,990,0)"><text
           transform="matrix(1,0,0,-1,566.8,207.4)"
           style="font-variant:normal;font-weight:normal;font-size:12px;font-family:'Times New Roman';-inkscape-font-specification:Times-Roman;writing-mode:lr-tb;fill:#00008f;fill-opacity:1;fill-rule:nonzero;stroke:none"
           id="text1073"><tspan
             x="0 7.3319998 10.668 15.996"
             y="0"
             sodipodi:role="line"
             id="tspan1069">Elec</tspan><tspan
             x="-25.5 -16.836 -12.168 -7.5 -2.1719999 1.824 7.8239999 11.16 15.828 20.496 25.823999 35.16 40.487999 46.487999"
             y="27"
             sodipodi:role="line"
             id="tspan1071">Asservissement</tspan></text></g><path
         d="m 2843.801,1984 c 0,-55.67 -45.133,-100.8 -100.801,-100.8 -55.668,0 -100.801,45.13 -100.801,100.8 0,55.67 45.133,100.8 100.801,100.8 55.668,0 100.801,-45.13 100.801,-100.8 z"
         style="fill:none;stroke:#008f00;stroke-width:9;stroke-linecap:butt;stroke-linejoin:miter;stroke-miterlimit:10;stroke-dasharray:none;stroke-opacity:1"
         id="path1075" /><g
         id="g1077"
         transform="translate(2010)"><g
           id="g1079"
           clip-path="url(#clipPath1083)"><path
             d="m 823,1984 h 360"
             style="fill:none;stroke:#008f00;stroke-width:9;stroke-linecap:butt;stroke-linejoin:miter;stroke-miterlimit:10;stroke-dasharray:none;stroke-opacity:1"
             id="path1085" /></g></g><path
         d="m 3090.4,1948 90,36 -90,36 z"
         style="fill:#008f00;fill-opacity:1;fill-rule:evenodd;stroke:none"
         id="path1087" /><path
         d="m 3090.4,1948 90,36 -90,36 z"
         style="fill:none;stroke:#008f00;stroke-width:9;stroke-linecap:butt;stroke-linejoin:miter;stroke-miterlimit:10;stroke-dasharray:none;stroke-opacity:1"
         id="path1089" /><path
         d="m 3193,1624 h 1260 v 720 H 3193 Z"
         style="fill:none;stroke:#008f00;stroke-width:9;stroke-linecap:butt;stroke-linejoin:miter;stroke-miterlimit:10;stroke-dasharray:none;stroke-opacity:1"
         id="path1091" /><g
         id="g1093"
         transform="translate(2010)"><g
           id="g1095"
           clip-path="url(#clipPath1099)"><path
             d="m 2443,1984 h 540"
             style="fill:none;stroke:#008f00;stroke-width:9;stroke-linecap:butt;stroke-linejoin:miter;stroke-miterlimit:10;stroke-dasharray:none;stroke-opacity:1"
             id="path1101" /></g></g><g
         id="g1107"
         transform="matrix(10,0,0,10,2010,-6.2499976e-7)"><text
           transform="matrix(1,0,0,-1,50.8,207.4)"
           style="font-variant:normal;font-weight:normal;font-size:12px;font-family:'Times New Roman';-inkscape-font-specification:Times-Roman;writing-mode:lr-tb;fill:#008f00;fill-opacity:1;fill-rule:nonzero;stroke:none"
           id="text1117"><tspan
             x="0 6.7680001"
             y="0"
             sodipodi:role="line"
             id="tspan1109">+b</tspan><tspan
             x="31.5 38.268002"
             y="31.5"
             sodipodi:role="line"
             id="tspan1111">−b</tspan><tspan
             x="117 127.668 132.996 138.32401"
             y="0"
             sodipodi:role="line"
             id="tspan1113">Meca</tspan><tspan
             x="94.5 103.164 107.832 112.5 117.828 121.824 127.824 131.16 135.828 140.496 145.82401 155.16 160.48801 166.48801 169.82401"
             y="27"
             sodipodi:role="line"
             id="tspan1115">Asservissement2</tspan></text></g><g
         id="g1171"
         transform="matrix(10,0,0,10,2010,-6.2499976e-7)"><text
           transform="matrix(1,0,0,-1,257.8,180.4)"
           style="font-variant:normal;font-weight:normal;font-size:12px;font-family:'Times New Roman';-inkscape-font-specification:Times-Roman;writing-mode:lr-tb;fill:#008f00;fill-opacity:1;fill-rule:nonzero;stroke:none"
           id="text1175"><tspan
             x="0 3.9960001 9.9960003 15.996"
             y="0"
             sodipodi:role="line"
             id="tspan1173">Idqr</tspan></text></g><path
         d="m 5783.8,1984 c 0,-55.67 -45.13,-100.8 -100.8,-100.8 -55.67,0 -100.8,45.13 -100.8,100.8 0,55.67 45.13,100.8 100.8,100.8 55.67,0 100.8,-45.13 100.8,-100.8 z"
         style="fill:none;stroke:#00008f;stroke-width:9;stroke-linecap:butt;stroke-linejoin:miter;stroke-miterlimit:10;stroke-dasharray:none;stroke-opacity:1"
         id="path1177" /><g
         id="g1179"
         transform="translate(990)"><g
           id="g1181"
           clip-path="url(#clipPath1185)"><path
             d="m 4783,1984 h 360"
             style="fill:none;stroke:#00008f;stroke-width:9;stroke-linecap:butt;stroke-linejoin:miter;stroke-miterlimit:10;stroke-dasharray:none;stroke-opacity:1"
             id="path1187" /></g></g><path
         d="m 6030.4,1948 90,36 -90,36 z"
         style="fill:#00008f;fill-opacity:1;fill-rule:evenodd;stroke:none"
         id="path1189" /><path
         d="m 6030.4,1948 90,36 -90,36 z"
         style="fill:none;stroke:#00008f;stroke-width:9;stroke-linecap:butt;stroke-linejoin:miter;stroke-miterlimit:10;stroke-dasharray:none;stroke-opacity:1"
         id="path1191" /><g
         id="g1193"
         transform="translate(990)"><g
           id="g1195"
           clip-path="url(#clipPath1199)"><path
             d="m 3883,1984 h 720"
             style="fill:none;stroke:#008f00;stroke-width:9;stroke-linecap:butt;stroke-linejoin:miter;stroke-miterlimit:10;stroke-dasharray:none;stroke-opacity:1"
             id="path1201" /></g></g><path
         d="m 5490.4,1948 90,36 -90,36 z"
         style="fill:#008f00;fill-opacity:1;fill-rule:evenodd;stroke:none"
         id="path1203" /><path
         d="m 5490.4,1948 90,36 -90,36 z"
         style="fill:none;stroke:#008f00;stroke-width:9;stroke-linecap:butt;stroke-linejoin:miter;stroke-miterlimit:10;stroke-dasharray:none;stroke-opacity:1"
         id="path1205" /><g
         id="g1207"
         transform="matrix(10,0,0,10,990,0)"><text
           transform="matrix(1,0,0,-1,446.8,207.4)"
           style="font-variant:normal;font-weight:normal;font-size:12px;font-family:'Times New Roman';-inkscape-font-specification:Times-Roman;writing-mode:lr-tb;fill:#00008f;fill-opacity:1;fill-rule:nonzero;stroke:none"
           id="text1215"><tspan
             x="0 6.7680001"
             y="0"
             sodipodi:role="line"
             id="tspan1209">+v</tspan><tspan
             x="4.5 11.268"
             y="31.5"
             sodipodi:role="line"
             id="tspan1211">−v</tspan><tspan
             x="-31.5 -27.504 -21.504 -15.504 -11.508"
             y="-18"
             sodipodi:role="line"
             id="tspan1213">Idqr2</tspan></text></g><g
         id="g1217"
         transform="matrix(1.0342962,0,0,1,766.88154,0)"><g
           id="g1219"
           clip-path="url(#clipPath1223)"><path
             d="m 6403,1984 h 540"
             style="fill:none;stroke:#00008f;stroke-width:9;stroke-linecap:butt;stroke-linejoin:miter;stroke-miterlimit:10;stroke-dasharray:none;stroke-opacity:1"
             id="path1225" /></g></g><g
         id="g1251"
         transform="translate(885,135)"><g
           id="g1253"
           clip-path="url(#clipPath1257)"><path
             d="m 6988,49 h 450"
             style="fill:none;stroke:#00008f;stroke-width:9;stroke-linecap:butt;stroke-linejoin:miter;stroke-miterlimit:10;stroke-dasharray:none;stroke-opacity:1"
             id="path1259" /></g></g><path
         d="m 8245.6,148 72,36 -72,36 z"
         style="fill:#00008f;fill-opacity:1;fill-rule:evenodd;stroke:none"
         id="path1261" /><path
         d="m 8245.6,148 72,36 -72,36 z"
         style="fill:none;stroke:#00008f;stroke-width:4.5;stroke-linecap:butt;stroke-linejoin:miter;stroke-miterlimit:10;stroke-dasharray:none;stroke-opacity:1"
         id="path1263" /><g
         id="g1265"
         transform="matrix(10,0,0,10,885,135)"><text
           transform="matrix(1,0,0,-1,752.8,4.9)"
           style="font-variant:normal;font-weight:normal;font-size:12px;font-family:'Times New Roman';-inkscape-font-specification:Times-Roman;writing-mode:lr-tb;fill:#00008f;fill-opacity:1;fill-rule:nonzero;stroke:none"
           id="text1269"><tspan
             x="0 7.3319998 14.004"
             y="0"
             sodipodi:role="line"
             id="tspan1267">TSE</tspan></text></g><path
         d="m 12613,1849 c -24.9,0 -45,-20.15 -45,-45 0,-24.85 20.1,-45 45,-45"
         style="fill:none;stroke:#008f00;stroke-width:9;stroke-linecap:butt;stroke-linejoin:miter;stroke-miterlimit:10;stroke-dasharray:none;stroke-opacity:1"
         id="path1271" /><path
         d="m 12613,1849 v 315"
         style="fill:none;stroke:#008f00;stroke-width:9;stroke-linecap:butt;stroke-linejoin:miter;stroke-miterlimit:10;stroke-dasharray:none;stroke-opacity:1"
         id="path1273" /><path
         d="M 12433,1804 V 1444 H 8518"
         style="fill:none;stroke:#00008f;stroke-width:9;stroke-linecap:butt;stroke-linejoin:miter;stroke-miterlimit:10;stroke-dasharray:none;stroke-opacity:1"
         id="path1275" /><g
         id="g1277"
         transform="matrix(0.83029382,0,0,1,2140.5041,0)"><g
           id="g1279"
           clip-path="url(#clipPath1283)"><path
             d="M 12613,1759 V 499 H 733 v 1395"
             style="fill:none;stroke:#008f00;stroke-width:9;stroke-linecap:butt;stroke-linejoin:miter;stroke-miterlimit:10;stroke-dasharray:none;stroke-opacity:1"
             id="path1285" /></g></g><path
         d="m 2779,1778.8 -36,108 -36,-108 z"
         style="fill:#008f00;fill-opacity:1;fill-rule:evenodd;stroke:none"
         id="path1287" /><path
         d="m 2779,1778.8 -36,108 -36,-108 z"
         style="fill:none;stroke:#008f00;stroke-width:4.5;stroke-linecap:butt;stroke-linejoin:miter;stroke-miterlimit:10;stroke-dasharray:none;stroke-opacity:1"
         id="path1289" /><g
         id="g1291"
         transform="translate(1860,150)"><g
           id="g1293"
           clip-path="url(#clipPath1297)"><path
             d="m 1903,49 h 450"
             style="fill:none;stroke:#008f00;stroke-width:9;stroke-linecap:butt;stroke-linejoin:miter;stroke-miterlimit:10;stroke-dasharray:none;stroke-opacity:1"
             id="path1299" /></g></g><path
         d="m 4135.6,163 72,36 -72,36 z"
         style="fill:#008f00;fill-opacity:1;fill-rule:evenodd;stroke:none"
         id="path1301" /><path
         d="m 4135.6,163 72,36 -72,36 z"
         style="fill:none;stroke:#008f00;stroke-width:4.5;stroke-linecap:butt;stroke-linejoin:miter;stroke-miterlimit:10;stroke-dasharray:none;stroke-opacity:1"
         id="path1303" /><path
         d="M 2361.0031,364 H 10048 V 2749 H 2361.0031 Z"
         style="fill:none;stroke:#ff0000;stroke-width:24.1794;stroke-linecap:butt;stroke-linejoin:miter;stroke-miterlimit:10;stroke-dasharray:48.3589;stroke-dashoffset:0;stroke-opacity:1"
         id="path1305" /><g
         id="g1307"
         transform="scale(10)"><text
           transform="matrix(1,0,0,-1,892.3,108.4)"
           style="font-variant:normal;font-weight:normal;font-size:12px;font-family:'Times New Roman';-inkscape-font-specification:Times-Roman;writing-mode:lr-tb;fill:#ff0000;fill-opacity:1;fill-rule:nonzero;stroke:none"
           id="text1313"><tspan
             x="0 3.336 8.6639996 14.664"
             y="0"
             sodipodi:role="line"
             id="tspan1309">iabc</tspan><tspan
             x="-468 -460.668 -451.332 -445.332 -440.004 -434.004 -428.004 -422.67599"
             y="-184.5"
             sodipodi:role="line"
             id="tspan1311">Embedded</tspan></text></g><g
         id="g1315"
         transform="matrix(10,0,0,10,2010,-6.2499976e-7)"><text
           transform="matrix(1,0,0,-1,82.3,148.9)"
           style="font-variant:normal;font-weight:normal;font-size:12px;font-family:'Times New Roman';-inkscape-font-specification:Times-Roman;writing-mode:lr-tb;fill:#00008f;fill-opacity:1;fill-rule:nonzero;stroke:none"
           id="text1319"><tspan
             x="0 8.6639996"
             y="0"
             sodipodi:role="line"
             id="tspan1317">wm</tspan></text></g><g
         id="g1321"
         transform="matrix(10,0,0,10,1860,150)"><text
           transform="matrix(1,0,0,-1,244.3,4.9)"
           style="font-variant:normal;font-weight:normal;font-size:12px;font-family:'Times New Roman';-inkscape-font-specification:Times-Roman;writing-mode:lr-tb;fill:#008f00;fill-opacity:1;fill-rule:nonzero;stroke:none"
           id="text1325"><tspan
             x="0 7.3319998 14.004"
             y="0"
             sodipodi:role="line"
             id="tspan1323">TSM</tspan></text></g><path
         d="M 8743,1210 8293,580"
         style="fill:none;stroke:#00008f;stroke-width:18;stroke-linecap:butt;stroke-linejoin:miter;stroke-miterlimit:10;stroke-dasharray:none;stroke-opacity:1"
         id="path1327" /><path
         d="m 8293,580 h 450 v 630 h -450 z"
         style="fill:none;stroke:#00008f;stroke-width:18;stroke-linecap:butt;stroke-linejoin:miter;stroke-miterlimit:10;stroke-dasharray:none;stroke-opacity:1"
         id="path1329" /><g
         id="g1331"
         transform="scale(10)"><text
           transform="matrix(1,0,0,-1,847.3,44.5)"
           style="font-variant:normal;font-weight:normal;font-size:12px;font-family:'Times New Roman';-inkscape-font-specification:Times-Roman;writing-mode:lr-tb;fill:#00008f;fill-opacity:1;fill-rule:nonzero;stroke:none"
           id="text1339"><tspan
             x="0 6.6719999 12 15.996"
             y="0"
             sodipodi:role="line"
             id="tspan1333">Park</tspan><tspan
             x="-9 -3"
             y="-58.5"
             sodipodi:role="line"
             id="tspan1335">dq</tspan><tspan
             x="9 14.328 20.327999"
             y="-22.5"
             sodipodi:role="line"
             id="tspan1337">abc</tspan></text></g><g
         id="g1341"><g
           id="g1343"
           clip-path="url(#clipPath1347)"><path
             d="m 8518,1399 v 270"
             style="fill:none;stroke:#00008f;stroke-width:9;stroke-linecap:butt;stroke-linejoin:miter;stroke-miterlimit:10;stroke-dasharray:none;stroke-opacity:1"
             id="path1349" /></g></g><path
         d="m 8554,1572.4 -36,90 -36,-90 z"
         style="fill:#00008f;fill-opacity:1;fill-rule:evenodd;stroke:none"
         id="path1351" /><path
         d="m 8554,1572.4 -36,90 -36,-90 z"
         style="fill:none;stroke:#00008f;stroke-width:4.5;stroke-linecap:butt;stroke-linejoin:miter;stroke-miterlimit:10;stroke-dasharray:none;stroke-opacity:1"
         id="path1353" /><g
         id="g1355"><g
           id="g1357"
           clip-path="url(#clipPath1361)"><path
             d="M 8518,1489 V 1219"
             style="fill:none;stroke:#00008f;stroke-width:9;stroke-linecap:butt;stroke-linejoin:miter;stroke-miterlimit:10;stroke-dasharray:none;stroke-opacity:1"
             id="path1363" /></g></g><path
         d="m 8482,1315.6 36,-90 36,90 z"
         style="fill:#00008f;fill-opacity:1;fill-rule:evenodd;stroke:none"
         id="path1365" /><path
         d="m 8482,1315.6 36,-90 36,90 z"
         style="fill:none;stroke:#00008f;stroke-width:4.5;stroke-linecap:butt;stroke-linejoin:miter;stroke-miterlimit:10;stroke-dasharray:none;stroke-opacity:1"
         id="path1367" /><g
         id="g1369"
         transform="matrix(0.72772277,0,0,1,2257.995,0)"><g
           id="g1371"
           clip-path="url(#clipPath1375)"><path
             d="M 8293,904 H 4693 v 990"
             style="fill:none;stroke:#00008f;stroke-width:9;stroke-linecap:butt;stroke-linejoin:miter;stroke-miterlimit:10;stroke-dasharray:none;stroke-opacity:1"
             id="path1377" /></g></g><path
         d="m 5719,1797.4 -36,90 -36,-90 z"
         style="fill:#00008f;fill-opacity:1;fill-rule:evenodd;stroke:none"
         id="path1379" /><path
         d="m 5719,1797.4 -36,90 -36,-90 z"
         style="fill:none;stroke:#00008f;stroke-width:4.5;stroke-linecap:butt;stroke-linejoin:miter;stroke-miterlimit:10;stroke-dasharray:none;stroke-opacity:1"
         id="path1381" /><g
         id="g1383"
         transform="matrix(10,0,0,10,990,0)"><text
           transform="matrix(1,0,0,-1,478.3,148.9)"
           style="font-variant:normal;font-weight:normal;font-size:12px;font-family:'Times New Roman';-inkscape-font-specification:Times-Roman;writing-mode:lr-tb;fill:#00008f;fill-opacity:1;fill-rule:nonzero;stroke:none"
           id="text1387"><tspan
             x="0 3.336 9.3360004"
             y="0"
             sodipodi:role="line"
             id="tspan1385">idq</tspan></text></g></g></g></svg>
